<svg width="625" height="162" viewBox="0 0 625 162" fill="none" xmlns="http://www.w3.org/2000/svg">
<path d="M81.26 0.999992L141.78 120H125.12L102.17 75.29H41.14L18.36 120H2.04L62.39 0.999992H81.26ZM71.74 15.28L47.94 61.52H95.37L71.74 15.28Z" fill="white"/>
<path d="M562.26 0.999992L622.78 120H606.12L583.17 75.29H522.14L499.36 120H483.04L543.39 0.999992H562.26ZM552.74 15.28L528.94 61.52H576.37L552.74 15.28Z" fill="white"/>
<rect x="154" y="115" width="317" height="4" fill="white"/>
<path d="M610.949 151.818L602.614 133H605.989L611.818 146.807L617.648 133H621.023L612.688 151.818H610.949ZM602 151.818V133H605.273V151.818H602ZM618.364 151.818V133H621.636V151.818H618.364ZM589.727 151.818V134.636H593V151.818H589.727ZM584 135.864V133H598.727V135.864H584Z" fill="white"/>
</svg>
