<svg width="30" height="9" viewBox="0 0 30 9" fill="none" xmlns="http://www.w3.org/2000/svg">
<path d="M6 4.50281C6 6.15966 4.65685 7.50281 3 7.50281C1.34315 7.50281 0 6.15966 0 4.50281C0 2.84595 1.34315 1.50281 3 1.50281C4.65685 1.50281 6 2.84595 6 4.50281Z" fill="#FF5522"/>
<path d="M29.9961 6.24465C29.9453 6.64973 29.8438 7.02273 29.6914 7.36364C29.5391 7.70053 29.3418 7.9893 29.0996 8.22995C28.8535 8.4746 28.5625 8.66511 28.2266 8.80147C27.8945 8.93382 27.5234 9 27.1133 9C26.7617 9 26.4414 8.94987 26.1523 8.8496C25.8672 8.74532 25.6133 8.60294 25.3906 8.42246C25.1641 8.24198 24.9688 8.02941 24.8047 7.78476C24.6445 7.54011 24.5117 7.2734 24.4062 6.98463C24.2969 6.69586 24.2148 6.39305 24.1602 6.0762C24.1094 5.75936 24.082 5.4385 24.0781 5.11364V3.89238C24.082 3.56751 24.1094 3.24666 24.1602 2.92981C24.2148 2.61297 24.2969 2.31016 24.4062 2.02139C24.5117 1.73262 24.6445 1.46591 24.8047 1.22126C24.9688 0.972594 25.1641 0.758021 25.3906 0.57754C25.6133 0.397059 25.8672 0.256684 26.1523 0.156417C26.4375 0.052139 26.7578 0 27.1133 0C27.5391 0 27.9199 0.0681818 28.2559 0.204545C28.5918 0.336898 28.8809 0.525401 29.123 0.770053C29.3652 1.01872 29.5586 1.31551 29.7031 1.66043C29.8516 2.00535 29.9492 2.38636 29.9961 2.80348H28.9121C28.877 2.53877 28.8164 2.29211 28.7305 2.0635C28.6445 1.83489 28.5293 1.63436 28.3848 1.4619C28.2402 1.28944 28.0625 1.15508 27.8516 1.05882C27.6445 0.958556 27.3984 0.908422 27.1133 0.908422C26.8555 0.908422 26.627 0.95254 26.4277 1.04078C26.2324 1.125 26.0645 1.24131 25.9238 1.38971C25.7793 1.5381 25.6582 1.71056 25.5605 1.90709C25.4668 2.10361 25.3906 2.31217 25.332 2.53275C25.2734 2.75334 25.2305 2.97995 25.2031 3.21257C25.1797 3.44118 25.168 3.66377 25.168 3.88035V5.11364C25.168 5.33021 25.1797 5.55481 25.2031 5.78743C25.2305 6.01604 25.2734 6.24064 25.332 6.46123C25.3906 6.68583 25.4668 6.89639 25.5605 7.09291C25.6543 7.28944 25.7734 7.4619 25.918 7.61029C26.0625 7.7627 26.2324 7.88302 26.4277 7.97126C26.623 8.05548 26.8516 8.09759 27.1133 8.09759C27.3984 8.09759 27.6445 8.05147 27.8516 7.95922C28.0625 7.86698 28.2402 7.73663 28.3848 7.56818C28.5293 7.40374 28.6445 7.20922 28.7305 6.98463C28.8164 6.75602 28.877 6.50936 28.9121 6.24465H29.9961Z" fill="white"/>
<path d="M22.1934 4.83088H18.6309V7.93516H22.7852V8.87968H17.5469V0.120321H22.7324V1.07086H18.6309V3.88636H22.1934V4.83088Z" fill="white"/>
<path d="M13.3613 5.30615H11.6562V8.87968H10.5781V0.120321H13.0801C13.4785 0.128342 13.8535 0.186497 14.2051 0.294786C14.5566 0.403075 14.8652 0.565508 15.1309 0.782086C15.3926 0.998663 15.5977 1.27139 15.7461 1.60027C15.8984 1.92513 15.9746 2.30816 15.9746 2.74933C15.9746 3.03409 15.9336 3.29479 15.8516 3.53142C15.7734 3.76805 15.6641 3.98262 15.5234 4.17513C15.3828 4.36765 15.2148 4.5381 15.0195 4.6865C14.8242 4.83489 14.6094 4.96123 14.375 5.06551L16.1855 8.80749L16.1797 8.87968H15.0371L13.3613 5.30615ZM11.6562 4.39171H13.1094C13.3516 4.3877 13.5801 4.3496 13.7949 4.27741C14.0098 4.2012 14.1992 4.09291 14.3633 3.95254C14.5234 3.81217 14.6504 3.64171 14.7441 3.44118C14.8379 3.23663 14.8848 3.00201 14.8848 2.7373C14.8848 2.45655 14.8398 2.2119 14.75 2.00334C14.6602 1.79078 14.5352 1.6123 14.375 1.46791C14.2148 1.32754 14.0234 1.22126 13.8008 1.14906C13.582 1.07687 13.3418 1.03877 13.0801 1.03476H11.6562V4.39171Z" fill="white"/>
</svg>
